<svg xmlns="http://www.w3.org/2000/svg" viewBox="0 0 128 128" role="img" aria-labelledby="title">
  <title id="title">ChildAir logo</title>
  <defs>
    <linearGradient id="childairGradient" x1="20" y1="96" x2="108" y2="28" gradientUnits="userSpaceOnUse">
      <stop offset="0" stop-color="#7AC943" />
      <stop offset="0.52" stop-color="#62C7B5" />
      <stop offset="1" stop-color="#35A9E6" />
    </linearGradient>
  </defs>
  <g fill="none" stroke="url(#childairGradient)" stroke-linecap="round" stroke-linejoin="round">
    <path d="M31.6 43.6a45 45 0 0 1 70.8-7.8" stroke-width="9" />
    <path d="M106.4 49.2a45.1 45.1 0 0 1-77.6 41" stroke-width="9" />
    <path
      d="M26 70.3c-9 0-16.3-7.3-16.3-16.3S17 37.8 26 37.8c3.2 0 6.2.9 8.7 2.5 4.4-10.4 14.6-17.2 26.2-17.2 13 0 24.2 8.8 27.5 21.1a13.7 13.7 0 1 1 3.5 27H62.2"
      stroke-width="8.5"
    />
    <path d="M39.5 79.5c16-13.2 33.9-14.6 55.7-8.2" stroke-width="7" />
    <path d="M37.2 92.4c15.6-12.4 33.5-13.1 54.1-6.1" stroke-width="7" />
    <path d="M88.5 68.7c12.7-3.6 20.8-11.5 24.2-24-14.3 1.4-23.7 9.1-28.3 23" stroke-width="7" />
  </g>
</svg>
